<svg xmlns="http://www.w3.org/2000/svg" viewBox="0 0 296 96" width="296" height="96">
    <path d="M36.91 73.41C17.02 73.41.3 57.22.3 37.33.3 17.44 17.02 1.25 36.91 1.25c11 0 18.83 4.31 24.73 9.94l-6.95 6.95c-4.22-3.96-9.94-7.04-17.78-7.04-14.52 0-25.87 11.7-25.87 26.22s11.35 26.22 25.87 26.22c9.42 0 14.78-3.78 18.22-7.22 2.82-2.82 4.66-6.86 5.37-12.41H37v-9.86h33.08c.35 1.76.53 3.87.53 6.16 0 7.39-2.02 16.54-8.54 23.06-6.33 6.62-14.43 10.14-25.16 10.14zm83.34-23.23c0 13.38-10.44 23.23-23.25 23.23s-23.25-9.86-23.25-23.23c0-13.46 10.44-23.23 23.25-23.23s23.25 9.76 23.25 23.23zm-10.18 0c0-8.36-6.05-14.08-13.07-14.08-7.02 0-13.07 5.72-13.07 14.08 0 8.27 6.05 14.08 13.07 14.08 7.02 0 13.07-5.81 13.07-14.08zm61.25 0c0 13.38-10.47 23.23-23.32 23.23s-23.32-9.86-23.32-23.23c0-13.46 10.47-23.23 23.32-23.23s23.32 9.76 23.32 23.23zm-10.21 0c0-8.36-6.07-14.08-13.11-14.08s-13.11 5.72-13.11 14.08c0 8.27 6.07 14.08 13.11 14.08s13.11-5.81 13.11-14.08zM220 28.35v41.71c0 17.16-10.12 24.2-22.09 24.2-11.26 0-18.04-7.57-20.59-13.73l8.89-3.7c1.58 3.78 5.46 8.27 11.7 8.27 7.66 0 12.41-4.75 12.41-13.64v-3.34h-.35c-2.29 2.82-6.69 5.28-12.23 5.28-11.62 0-22.24-10.12-22.24-23.14 0-13.11 10.62-23.32 22.24-23.32 5.54 0 9.94 2.46 12.23 5.19h.35v-3.78H220zm-8.98 21.91c0-8.18-5.46-14.17-12.41-14.17-7.04 0-12.94 5.98-12.94 14.17 0 8.1 5.9 13.99 12.94 13.99 6.96.01 12.41-5.89 12.41-13.99zM236.41 4v68h-10.15V4h10.15zm39.09 53.83l7.92 5.28c-2.55 3.78-8.71 10.3-19.36 10.3-13.2 0-23.06-10.21-23.06-23.23 0-13.82 9.94-23.23 21.91-23.23 12.06 0 17.95 9.59 19.89 14.78l1.06 2.64-31.06 12.85c2.38 4.66 6.07 7.04 11.26 7.04 5.19 0 8.8-2.56 11.44-6.43zm-24.38-8.36l20.77-8.62c-1.14-2.9-4.58-4.93-8.62-4.93-5.2 0-12.41 4.58-12.15 13.55z"/>
    <path fill="none" d="M0 0h296v96H0z"/>
    <path d="M289 28v.75h-1.6V34h-.8v-5.25H285V28h4zm7 0v6h-.8v-3.64c0-.48.03-1.16.03-1.16h-.03l-1.87 4.8h-.65l-1.87-4.79h-.03s.03.68.03 1.16V34H290v-6h1.12l1.86 4.9h.03l1.86-4.9H296z"/>
    <path fill="none" d="M284 28h12v6h-12z"/>
</svg>
