<?xml version="1.0" encoding="UTF-8" standalone="no"?>
<!-- Created with Inkscape (http://www.inkscape.org/) -->

<svg
   xmlns:dc="http://purl.org/dc/elements/1.1/"
   xmlns:cc="http://creativecommons.org/ns#"
   xmlns:rdf="http://www.w3.org/1999/02/22-rdf-syntax-ns#"
   xmlns:svg="http://www.w3.org/2000/svg"
   xmlns="http://www.w3.org/2000/svg"
   xmlns:sodipodi="http://sodipodi.sourceforge.net/DTD/sodipodi-0.dtd"
   xmlns:inkscape="http://www.inkscape.org/namespaces/inkscape"
   width="580.15967"
   height="896.80444"
   id="svg4214"
   version="1.1"
   inkscape:version="0.48.4 r9939"
   sodipodi:docname="t_shirt_2016_front_mentor.svg"
   inkscape:export-filename="/home/simon/repositories/github/meiersi/HaskellerZ/zurihac/2016/t_shirt_2016_front_mentor.png"
   inkscape:export-xdpi="300"
   inkscape:export-ydpi="300">
  <defs
     id="defs4216" />
  <sodipodi:namedview
     id="base"
     pagecolor="#ffffff"
     bordercolor="#666666"
     borderopacity="1.0"
     inkscape:pageopacity="0.0"
     inkscape:pageshadow="2"
     inkscape:zoom="0.35"
     inkscape:cx="285.07984"
     inkscape:cy="436.97366"
     inkscape:document-units="px"
     inkscape:current-layer="layer1"
     showgrid="false"
     fit-margin-top="0"
     fit-margin-left="0"
     fit-margin-right="0"
     fit-margin-bottom="0"
     inkscape:window-width="1600"
     inkscape:window-height="876"
     inkscape:window-x="0"
     inkscape:window-y="24"
     inkscape:window-maximized="1" />
  <metadata
     id="metadata4219">
    <rdf:RDF>
      <cc:Work
         rdf:about="">
        <dc:format>image/svg+xml</dc:format>
        <dc:type
           rdf:resource="http://purl.org/dc/dcmitype/StillImage" />
        <dc:title></dc:title>
      </cc:Work>
    </rdf:RDF>
  </metadata>
  <g
     inkscape:label="Layer 1"
     inkscape:groupmode="layer"
     id="layer1"
     transform="translate(-89.920162,-72.531382)">
    <g
       transform="translate(-180.94908,572.35675)"
       id="g4161">
      <g
         id="g3148-4-2"
         transform="matrix(8.0464681,0,0,-8.0464681,264.26687,81.226893)"
         style="fill:#bd0000;fill-opacity:1">
        <path
           id="path3150-0-5"
           style="fill:#bd0000;fill-opacity:1;fill-rule:nonzero;stroke:none"
           d="M 33.2075,27.40004 18.26663,49.81116 c -0.61226,0.91844 -0.2165,1.66298 0.88396,1.66298 l 8.88344,0 c 1.10046,0 2.48889,-0.74454 3.10117,-1.66298 L 63.23405,1.66296 C 63.84633,0.74452 63.45059,0 62.35011,0 l -8.88342,0 c -1.10048,0 -2.48894,0.74452 -3.10124,1.66296 l -8.50641,12.75972 c -0.61231,0.91845 -1.60506,0.91845 -2.21736,0 L 31.13525,1.66296 C 30.52295,0.74452 29.13449,0 28.03403,0 L 19.15059,0 C 18.05013,0 17.65437,0.74452 18.26663,1.66296 L 33.2075,24.07408 c 0.61226,0.91846 0.61226,2.40752 0,3.32596 z"
           inkscape:connector-curvature="0" />
      </g>
      <g
         style="fill:#db8400;fill-opacity:1"
         id="g3949">
        <g
           style="fill:#db8400;fill-opacity:1"
           transform="matrix(8.0464681,0,0,-8.0464681,264.26687,81.226893)"
           id="g3144-9-0">
          <path
             inkscape:connector-curvature="0"
             d="m 1.10858,1.66296 14.94087,22.41112 c 0.61226,0.91846 0.61226,2.40752 0,3.32596 L 1.10858,49.81116 c -0.61226,0.91844 -0.21651,1.66298 0.88397,1.66298 l 8.88343,0 c 1.10046,0 2.48887,-0.74454 3.10113,-1.66298 L 28.91798,27.40004 c 0.61226,-0.91844 0.61226,-2.4075 0,-3.32596 L 13.97711,1.66296 C 13.36485,0.74452 11.97644,0 10.87598,0 L 1.99255,0 C 0.89207,0 0.49632,0.74452 1.10858,1.66296 z"
             style="fill:#db8400;fill-opacity:1;fill-rule:nonzero;stroke:none"
             id="path3146-3-2" />
        </g>
        <g
           style="fill:#db8400;fill-opacity:1"
           transform="matrix(8.0464681,0,0,-8.0464681,264.26687,81.226893)"
           id="g3152-6-4">
          <path
             inkscape:connector-curvature="0"
             d="m 57.51857,16.67717 -3.50247,5.2536 c -0.61228,0.91844 -0.21654,1.66298 0.88394,1.66298 l 16.0291,0 c 1.10048,0 1.99255,-0.89207 1.99255,-1.99255 l 0,-4.59536 c 0,-1.10048 -0.89207,-1.9925 -1.99255,-1.99246 l -10.3094,7.2e-4 c -1.10047,4e-5 -2.4889,0.74463 -3.10117,1.66307 z"
             style="fill:#db8400;fill-opacity:1;fill-rule:nonzero;stroke:none"
             id="path3154-9-1" />
        </g>
        <g
           style="fill:#db8400;fill-opacity:1"
           transform="matrix(8.0464681,0,0,-8.0464681,264.26687,81.226893)"
           id="g3156-3-4">
          <path
             inkscape:connector-curvature="0"
             d="m 48.93898,29.5465 -3.50241,5.25363 c -0.61229,0.91844 -0.21657,1.66296 0.8839,1.66296 l 24.60867,0 c 1.10048,0 1.99255,-0.89208 1.99255,-1.99255 l 0,-4.59617 c 0,-1.10047 -0.89207,-1.99249 -1.99255,-1.99243 l -18.88896,0.0015 c -1.10047,7e-5 -2.48891,0.74465 -3.1012,1.6631 z"
             style="fill:#db8400;fill-opacity:1;fill-rule:nonzero;stroke:none"
             id="path3158-4-0" />
        </g>
      </g>
      <g
         style="fill:#bd0000;fill-opacity:1"
         transform="translate(2.0202015,-2.510376e-5)"
         id="g3572">
        <text
           xml:space="preserve"
           style="font-size:153.25965881px;font-style:normal;font-variant:normal;font-weight:normal;font-stretch:normal;line-height:125%;letter-spacing:0px;word-spacing:0px;fill:#bd0000;fill-opacity:1;stroke:none;font-family:Ubuntu Mono;-inkscape-font-specification:Ubuntu Mono"
           x="557.92072"
           y="248.69206"
           id="text3160-4-5"
           sodipodi:linespacing="125%"><tspan
             id="tspan3164-3-2"
             sodipodi:role="line"
             x="557.92072"
             y="248.69206"
             style="font-style:normal;font-variant:normal;font-weight:normal;font-stretch:normal;text-align:center;text-anchor:middle;fill:#bd0000;fill-opacity:1;font-family:Ubuntu;-inkscape-font-specification:Ubuntu">ZuriHac</tspan><tspan
             id="tspan3166-6-9"
             sodipodi:role="line"
             x="557.92072"
             y="440.26663"
             style="font-style:normal;font-variant:normal;font-weight:normal;font-stretch:normal;text-align:center;text-anchor:middle;fill:#bd0000;fill-opacity:1;font-family:Ubuntu;-inkscape-font-specification:Ubuntu" /><tspan
             sodipodi:role="line"
             x="557.92072"
             y="631.84119"
             id="tspan3168-6-7"
             style="font-style:normal;font-variant:normal;font-weight:normal;font-stretch:normal;text-align:center;text-anchor:middle;fill:#bd0000;fill-opacity:1;font-family:Ubuntu;-inkscape-font-specification:Ubuntu" /></text>
        <text
           sodipodi:linespacing="125%"
           id="text3170-2-5"
           y="395.13953"
           x="559.99908"
           style="font-size:122.63925171px;font-style:normal;font-variant:normal;font-weight:normal;font-stretch:normal;line-height:125%;letter-spacing:0px;word-spacing:0px;fill:#bd0000;fill-opacity:1;stroke:none;font-family:Ubuntu Mono;-inkscape-font-specification:Ubuntu Mono"
           xml:space="preserve"><tspan
             style="font-style:normal;font-variant:normal;font-weight:normal;font-stretch:normal;text-align:center;text-anchor:middle;fill:#bd0000;fill-opacity:1;font-family:Ubuntu;-inkscape-font-specification:Ubuntu"
             y="395.13953"
             x="559.99908"
             sodipodi:role="line"
             id="tspan3174-9-0">2016</tspan><tspan
             style="font-style:normal;font-variant:normal;font-weight:normal;font-stretch:normal;text-align:center;text-anchor:middle;fill:#bd0000;fill-opacity:1;font-family:Ubuntu;-inkscape-font-specification:Ubuntu"
             y="548.4386"
             x="559.99908"
             sodipodi:role="line"
             id="tspan3176-8-7" /><tspan
             style="font-style:normal;font-variant:normal;font-weight:normal;font-stretch:normal;text-align:center;text-anchor:middle;fill:#bd0000;fill-opacity:1;font-family:Ubuntu;-inkscape-font-specification:Ubuntu"
             id="tspan3178-8-0"
             y="701.73767"
             x="559.99908"
             sodipodi:role="line" /></text>
      </g>
      <text
         xml:space="preserve"
         style="font-size:153.25965881px;font-style:normal;font-variant:normal;font-weight:normal;font-stretch:normal;line-height:125%;letter-spacing:0px;word-spacing:0px;fill:#bd0000;fill-opacity:1;stroke:none;font-family:Ubuntu Mono;-inkscape-font-specification:Ubuntu Mono"
         x="556.63623"
         y="-393.61642"
         id="text3094-4-3-8-0"
         sodipodi:linespacing="125%"><tspan
           sodipodi:role="line"
           x="556.63623"
           y="-393.61642"
           id="tspan3098-4-4-5-2"
           style="font-style:normal;font-variant:normal;font-weight:normal;font-stretch:normal;text-align:center;text-anchor:middle;fill:#bd0000;fill-opacity:1;font-family:Ubuntu;-inkscape-font-specification:Ubuntu">Mentor</tspan></text>
    </g>
  </g>
</svg>
