<?xml version="1.0" encoding="UTF-8" standalone="no"?>
<!-- Created with Inkscape (http://www.inkscape.org/) -->

<svg
   xmlns:dc="http://purl.org/dc/elements/1.1/"
   xmlns:cc="http://creativecommons.org/ns#"
   xmlns:rdf="http://www.w3.org/1999/02/22-rdf-syntax-ns#"
   xmlns:svg="http://www.w3.org/2000/svg"
   xmlns="http://www.w3.org/2000/svg"
   xmlns:sodipodi="http://sodipodi.sourceforge.net/DTD/sodipodi-0.dtd"
   xmlns:inkscape="http://www.inkscape.org/namespaces/inkscape"
   id="svg3735"
   version="1.1"
   inkscape:version="0.48.4 r9939"
   width="561.6535"
   height="356.97021"
   xml:space="preserve"
   sodipodi:docname="t_shirt_2016_back_mentor.svg"
   inkscape:export-filename="/home/simon/repositories/github/meiersi/HaskellerZ/zurihac/2016/t_shirt_2016_back_mentor.png"
   inkscape:export-xdpi="300"
   inkscape:export-ydpi="300"><metadata
     id="metadata3741"><rdf:RDF><cc:Work
         rdf:about=""><dc:format>image/svg+xml</dc:format><dc:type
           rdf:resource="http://purl.org/dc/dcmitype/StillImage" /><dc:title /></cc:Work></rdf:RDF></metadata><defs
     id="defs3739" /><sodipodi:namedview
     pagecolor="#ffffff"
     bordercolor="#666666"
     borderopacity="1"
     objecttolerance="10"
     gridtolerance="10"
     guidetolerance="10"
     inkscape:pageopacity="0"
     inkscape:pageshadow="2"
     inkscape:window-width="1600"
     inkscape:window-height="876"
     id="namedview3737"
     showgrid="false"
     inkscape:document-units="cm"
     units="cm"
     showguides="true"
     inkscape:guide-bbox="true"
     fit-margin-top="0"
     fit-margin-left="0"
     fit-margin-right="0"
     fit-margin-bottom="0"
     inkscape:zoom="0.98624712"
     inkscape:cx="389.33869"
     inkscape:cy="21.640865"
     inkscape:window-x="0"
     inkscape:window-y="24"
     inkscape:window-maximized="1"
     inkscape:current-layer="g3743"><sodipodi:guide
       orientation="1,0"
       position="862.41131,282.06971"
       id="guide3779" /></sodipodi:namedview><g
     id="g3743"
     inkscape:groupmode="layer"
     inkscape:label="t_shirt_2015_back_participant_and_mentor"
     transform="matrix(1.25,0,0,-1.25,221.59829,502.78515)"><g
       transform="translate(286.65154,55.151329)"
       id="g3917"
       style="fill:#666666;fill-opacity:1"><path
         d="m -463.93017,277.57861 0,68.06458 8.32714,1.4336 0,-23.82231 c 1.55301,0.59194 3.21087,1.0499 4.97138,1.37682 1.75761,0.33273 3.50429,0.50019 5.2335,0.50019 3.70014,0 6.77413,-0.52276 9.22633,-1.56976 2.44856,-1.04043 4.40493,-2.49952 5.86984,-4.37944 1.46201,-1.88284 2.49152,-4.13846 3.08273,-6.76904 0.59776,-2.62548 0.89919,-5.51745 0.89919,-8.68026 l 0,-26.15438 -8.32787,0 0,24.35673 c 0,2.86721 -0.19295,5.31286 -0.58029,7.33767 -0.38661,2.03064 -1.03243,3.67466 -1.9338,4.92624 -0.89555,1.25668 -2.09034,2.17262 -3.58365,2.74125 -1.48748,0.56937 -3.33318,0.85332 -5.54002,0.85332 -0.90428,0 -1.83187,-0.0626 -2.78712,-0.18202 -0.95015,-0.12232 -1.86027,-0.25847 -2.73033,-0.40919 -0.86497,-0.14488 -1.64402,-0.30725 -2.33207,-0.48927 -0.68294,-0.18202 -1.17222,-0.32982 -1.46782,-0.44341 l 0,-38.69132 -8.32714,0 z m 66.6681,5.99508 c 1.97093,0 3.7147,0.0459 5.23277,0.13688 1.52461,0.091 2.79294,0.25556 3.81154,0.5002 l 0,13.87954 c -0.59194,0.2956 -1.56466,0.54606 -2.91235,0.75066 -1.3426,0.21041 -2.96915,0.3189 -4.88038,0.3189 -1.25158,0 -2.57961,-0.091 -3.98191,-0.27304 -1.40521,-0.17692 -2.69029,-0.54606 -3.85668,-1.11543 -1.16058,-0.56863 -2.1333,-1.34769 -2.91235,-2.33206 -0.77324,-0.97855 -1.16058,-2.27528 -1.16058,-3.8909 0,-2.9888 0.95598,-5.0675 2.86721,-6.23389 1.91123,-1.16057 4.5076,-1.74086 7.79273,-1.74086 z m -0.71644,41.73982 c 3.34411,0 6.16545,-0.43758 8.46402,-1.30764 2.29785,-0.86497 4.14646,-2.09034 5.55167,-3.67466 1.40157,-1.5785 2.40269,-3.45551 3.00337,-5.63176 0.59703,-2.17844 0.89846,-4.58186 0.89846,-7.21244 l 0,-29.10095 c -0.72227,-0.12232 -1.72339,-0.28978 -3.00337,-0.50019 -1.28289,-0.2046 -2.73033,-0.39244 -4.34595,-0.56864 -1.60981,-0.18202 -3.35285,-0.3473 -5.23277,-0.50092 -1.88284,-0.15072 -3.74893,-0.22717 -5.59754,-0.22717 -2.6335,0 -5.05075,0.27012 -7.25831,0.80745 -2.20684,0.53733 -4.11807,1.38774 -5.73369,2.54831 -1.60908,1.1664 -2.86357,2.70776 -3.76495,4.61899 -0.89627,1.91123 -1.34259,4.20908 -1.34259,6.89354 0,2.5716 0.52349,4.78135 1.56976,6.63288 1.04699,1.84861 2.46312,3.33901 4.25494,4.47046 1.78891,1.138 3.87926,1.97384 6.26811,2.51481 2.38886,0.53733 4.89494,0.80745 7.5197,0.80745 0.84239,0 1.70955,-0.0459 2.60509,-0.13688 0.89337,-0.091 1.74377,-0.2126 2.54831,-0.36404 0.80235,-0.14489 1.50496,-0.27813 2.1049,-0.39754 0.59704,-0.12232 1.01569,-0.21333 1.25159,-0.27303 l 0,2.33206 c 0,1.37099 -0.14781,2.73033 -0.44414,4.0722 -0.2956,1.34259 -0.83584,2.53739 -1.6149,3.58365 -0.77395,1.04699 -1.83187,1.87992 -3.17446,2.50316 -1.34187,0.62834 -3.09146,0.94433 -5.24442,0.94433 -2.74707,0 -5.15049,-0.19367 -7.21244,-0.58028 -2.05612,-0.38662 -3.59238,-0.7907 -4.60734,-1.20572 l -0.97855,6.89354 c 1.06956,0.47836 2.85848,0.93851 5.36965,1.38847 2.50827,0.44631 5.22476,0.67056 8.14585,0.67056 z m 42.34268,-41.73982 c 3.40454,0 5.92664,0.44705 7.56484,1.34259 1.64402,0.90138 2.46894,2.33498 2.46894,4.30009 0,2.03064 -0.80745,3.64335 -2.42308,4.83523 -1.6098,1.19771 -4.26368,2.54249 -7.96382,4.03871 -1.79183,0.71061 -3.50938,1.4387 -5.15341,2.18426 -1.6382,0.75066 -3.05724,1.63237 -4.25422,2.65024 -1.19188,1.01568 -2.14785,2.23596 -2.86721,3.66374 -0.71352,1.43288 -1.06956,3.1963 -1.06956,5.28956 0,4.11879 1.51879,7.38645 4.5622,9.80661 3.04851,2.41726 7.20152,3.62879 12.45686,3.62879 1.31129,0 2.62257,-0.0765 3.93677,-0.22716 1.31056,-0.15363 2.53083,-0.33565 3.66301,-0.54607 1.13727,-0.20459 2.13839,-0.42957 3.00336,-0.67129 0.87007,-0.2359 1.54137,-0.4405 2.01317,-0.61451 l -1.51297,-7.16657 c -0.89555,0.47763 -2.29785,0.96982 -4.20908,1.47875 -1.91123,0.50602 -4.20907,0.76231 -6.89426,0.76231 -2.32915,0 -4.3627,-0.4638 -6.09774,-1.38847 -1.72921,-0.92685 -2.59345,-2.37429 -2.59345,-4.34523 0,-1.01859 0.19295,-1.91705 0.58029,-2.69611 0.38661,-0.77395 0.98073,-1.47656 1.786,-2.1049 0.81036,-0.62251 1.81148,-1.2028 3.00336,-1.74086 1.19698,-0.54024 2.63058,-1.10305 4.30009,-1.69498 2.20683,-0.83585 4.17486,-1.65786 5.90406,-2.46822 1.73504,-0.80527 3.21451,-1.74669 4.43697,-2.82134 1.22901,-1.06956 2.16752,-2.36629 2.82134,-3.89091 0.65965,-1.52461 0.9902,-3.38997 0.9902,-5.59754 0,-4.30008 -1.59888,-7.55391 -4.79009,-9.76074 -3.19339,-2.20684 -7.74685,-3.31062 -13.66257,-3.31062 -4.11806,0 -7.34349,0.3473 -9.66973,1.03534 -2.32989,0.68295 -3.91129,1.20062 -4.74423,1.55884 l 1.52462,7.16657 c 0.95525,-0.36405 2.47404,-0.9072 4.56147,-1.62655 2.09325,-0.71353 4.86945,-1.06956 8.32787,-1.06956 z m 45.75814,19.61323 c 1.78892,-1.3739 3.68049,-3.07763 5.67691,-5.10826 2.00224,-2.02482 3.97317,-4.21782 5.91571,-6.57537 1.93963,-2.36046 3.77732,-4.74931 5.50653,-7.16729 1.73503,-2.41143 3.19922,-4.66413 4.3911,-6.75739 l -9.76075,0 c -1.25158,2.09326 -2.70193,4.22655 -4.34596,6.40499 -1.63819,2.17553 -3.35575,4.26587 -5.1534,6.26811 -1.79183,2.00224 -3.61205,3.83703 -5.46066,5.50653 -1.85153,1.66659 -3.61205,3.07108 -5.27864,4.20908 l 0,-22.38871 -8.32787,0 0,68.06458 8.32787,1.4336 0,-42.45626 c 1.43361,1.43287 3.01501,3.01428 4.74422,4.74349 1.72921,1.73503 3.42711,3.49846 5.09662,5.29029 1.6746,1.78891 3.25892,3.50356 4.75514,5.14175 1.49331,1.64403 2.77547,3.09438 3.84503,4.34596 l 9.7724,0 c -1.38191,-1.48748 -2.87813,-3.12859 -4.49376,-4.92624 -1.6098,-1.7911 -3.2764,-3.59457 -5.00561,-5.41479 -1.7292,-1.82022 -3.47807,-3.64044 -5.24441,-5.46066 -1.76052,-1.82022 -3.41328,-3.53778 -4.96047,-5.15341 z m 24.84382,-2.41215 c 0,4.11879 0.59412,7.71336 1.786,10.78516 1.19698,3.0769 2.7813,5.63104 4.75514,7.65585 1.97094,2.03136 4.23747,3.55525 6.80326,4.57385 2.57087,1.01495 5.19854,1.52388 7.88373,1.52388 6.27102,0 11.07495,-1.95637 14.41396,-5.86984 3.34411,-3.90765 5.01652,-9.8605 5.01652,-17.86073 0,-0.36404 0,-0.83074 0,-1.39938 0,-0.56354 -0.0313,-1.08121 -0.091,-1.55884 l -31.87641,0 c 0.3553,-4.84033 1.7576,-8.51499 4.20907,-11.02325 2.44929,-2.50316 6.27175,-3.75475 11.46739,-3.75475 2.91817,0 5.38129,0.25338 7.38354,0.76231 2.00224,0.50675 3.50938,1.00112 4.52798,1.47875 l 1.15984,-6.98455 c -1.01787,-0.54024 -2.79513,-1.10378 -5.33543,-1.69499 -2.53374,-0.59776 -5.41188,-0.89919 -8.63439,-0.89919 -4.05837,0 -7.56557,0.6116 -10.52306,1.83187 -2.95822,1.22028 -5.39222,2.90362 -7.30345,5.05075 -1.90613,2.15295 -3.32226,4.70417 -4.25494,7.65657 -0.92759,2.95749 -1.38774,6.2004 -1.38774,9.72653 z m 31.97835,4.5622 c 0.0597,3.75984 -0.88099,6.8513 -2.82134,9.27147 -1.94254,2.41798 -4.61535,3.62952 -8.01989,3.62952 -1.91123,0 -3.60112,-0.3757 -5.06239,-1.12636 -1.45618,-0.74556 -2.69393,-1.71537 -3.70888,-2.91235 -1.0186,-1.19188 -1.80857,-2.56578 -2.37794,-4.11806 -0.56864,-1.54719 -0.94142,-3.1286 -1.1147,-4.74422 l 23.10514,0 z m 34.46186,-28.65682 c -5.13593,0.12232 -8.77929,1.22246 -10.93224,3.30989 -2.14713,2.09325 -3.21961,5.34999 -3.21961,9.7724 l 0,55.88075 8.32714,1.4336 0,-55.97176 c 0,-1.3739 0.11723,-2.51117 0.35313,-3.41255 0.24172,-0.89627 0.63125,-1.61271 1.17149,-2.15077 0.53733,-0.5315 1.2545,-0.93268 2.15004,-1.20571 0.89337,-0.26721 1.99715,-0.48928 3.31062,-0.6713 l -1.16057,-6.98455 z m 24.41133,0 c -5.13666,0.12232 -8.78001,1.22246 -10.93297,3.30989 -2.14713,2.09325 -3.2196,5.34999 -3.2196,9.7724 l 0,55.88075 8.32787,1.4336 0,-55.97176 c 0,-1.3739 0.11649,-2.51117 0.35239,-3.41255 0.24173,-0.89627 0.63125,-1.61271 1.17222,-2.15077 0.53733,-0.5315 1.25377,-0.93268 2.15005,-1.20571 0.89263,-0.26721 1.99641,-0.48928 3.31061,-0.6713 l -1.16057,-6.98455 z m 20.28963,5.7337 c 0,-1.60981 -0.54024,-3.0121 -1.61563,-4.20981 -1.07757,-1.18824 -2.54248,-1.786 -4.3911,-1.786 -1.85153,0 -3.31644,0.59776 -4.3911,1.786 -1.06956,1.19771 -1.60397,2.6 -1.60397,4.20981 0,1.61489 0.53441,3.01719 1.60397,4.20907 1.07466,1.19698 2.53957,1.79765 4.3911,1.79765 1.84862,0 3.31353,-0.60067 4.3911,-1.79765 1.07539,-1.19188 1.61563,-2.59418 1.61563,-4.20907 z m 53.22177,18.45193 c 0,-3.70306 -0.54097,-7.04717 -1.61563,-10.03378 -1.06956,-2.9888 -2.5767,-5.5575 -4.51633,-7.70172 -1.94254,-2.14713 -4.26077,-3.80571 -6.95105,-4.97138 -2.68519,-1.16057 -5.60847,-1.74086 -8.77128,-1.74086 -3.16281,0 -6.08609,0.58029 -8.77127,1.74086 -2.68446,1.16567 -4.99978,2.82425 -6.93941,4.97138 -1.94254,2.14422 -3.45259,4.71292 -4.52798,7.70172 -1.07757,2.98661 -1.61563,6.33072 -1.61563,10.03378 0,3.64044 0.53806,6.96561 1.61563,9.97699 1.07539,3.01792 2.58544,5.60045 4.52798,7.74758 1.93963,2.15296 4.25495,3.81081 6.93941,4.97138 2.68518,1.1664 5.60846,1.75178 8.77127,1.75178 3.16281,0 6.08609,-0.58538 8.77128,-1.75178 2.69028,-1.16057 5.00851,-2.81842 6.95105,-4.97138 1.93963,-2.14713 3.44677,-4.72966 4.51633,-7.74758 1.07466,-3.01138 1.61563,-6.33655 1.61563,-9.97699 z m -8.69192,0 c 0,5.24733 -1.18023,9.40835 -3.53777,12.48015 -2.35246,3.07763 -5.56041,4.61899 -9.6246,4.61899 -4.05836,0 -7.26632,-1.54136 -9.62459,-4.61899 -2.36046,-3.0718 -3.53778,-7.23282 -3.53778,-12.48015 0,-5.25534 1.17732,-9.4251 3.53778,-12.50273 2.35827,-3.07107 5.56623,-4.60734 9.62459,-4.60734 4.06419,0 7.27214,1.53627 9.6246,4.60734 2.35754,3.07763 3.53777,7.24739 3.53777,12.50273 z m 37.431,24.26571 c 0.72008,0 1.54137,-0.0451 2.46895,-0.13615 0.92394,-0.091 1.83405,-0.21333 2.73033,-0.36404 0.89264,-0.14489 1.71246,-0.2927 2.4573,-0.44341 0.75066,-0.14562 1.30255,-0.27886 1.66077,-0.39826 l -1.43361,-7.25831 c -0.65965,0.24172 -1.75178,0.52641 -3.27639,0.85332 -1.51807,0.324 -3.46934,0.48927 -5.8582,0.48927 -1.55592,0 -3.09437,-0.16527 -4.61899,-0.48927 -1.51879,-0.32691 -2.51409,-0.55189 -2.99244,-0.6713 l 0,-39.13473 -8.32714,0 0,44.59539 c 1.97093,0.71935 4.41658,1.39065 7.33767,2.01389 2.92691,0.62834 6.21132,0.9436 9.85175,0.9436 z m 46.52701,-42.89967 c -0.71426,-0.47835 -2.10199,-1.08922 -4.16394,-1.83187 -2.06485,-0.74483 -4.46827,-1.1147 -7.21244,-1.1147 -2.8075,0 -5.44973,0.44632 -7.9296,1.34187 -2.47404,0.89336 -4.63574,2.2811 -6.48435,4.16393 -1.85153,1.87993 -3.31644,4.22364 -4.3911,7.03042 -1.0783,2.80459 -1.61563,6.14652 -1.61563,10.02286 0,3.40454 0.50602,6.52439 1.52462,9.36248 1.01495,2.8359 2.4937,5.28155 4.43624,7.3384 1.93962,2.06194 4.31465,3.67393 7.12215,4.8345 2.80387,1.1664 5.96668,1.75178 9.48772,1.75178 3.88216,0 7.26923,-0.28395 10.15901,-0.85259 2.89488,-0.56936 5.3296,-1.09213 7.30345,-1.57048 l 0,-41.54616 c 0,-7.1673 -1.85153,-12.36075 -5.55167,-15.58545 -3.70306,-3.22252 -9.31443,-4.83523 -16.83704,-4.83523 -2.92108,0 -5.68272,0.23881 -8.282,0.71644 -2.59344,0.47835 -4.84615,1.04699 -6.75738,1.70664 l 1.52462,7.24666 c 1.66659,-0.65091 3.71106,-1.2312 6.13195,-1.74013 2.41725,-0.50675 4.94008,-0.76231 7.56484,-0.76231 4.95172,0 8.51498,0.98656 10.69415,2.95749 2.18427,1.96511 3.2764,5.09662 3.2764,9.3967 l 0,1.96875 z m -0.091,34.57253 c -0.83658,0.23299 -1.95419,0.45797 -3.35649,0.6713 -1.40448,0.21042 -3.29896,0.31817 -5.68782,0.31817 -4.47701,0 -7.92378,-1.46418 -10.34103,-4.3911 -2.4209,-2.92909 -3.62952,-6.81126 -3.62952,-11.6494 0,-2.68446 0.34147,-4.98304 1.02442,-6.89427 0.68804,-1.91123 1.6149,-3.49264 2.77547,-4.74349 1.1664,-1.25158 2.51409,-2.17844 4.0387,-2.7762 1.52462,-0.59994 3.08855,-0.89846 4.69835,-0.89846 2.20684,0 4.23456,0.31308 6.08609,0.94433 1.84862,0.62834 3.31353,1.35934 4.39183,2.19518 l 0,27.22394 z"
         style="fill:#666666;fill-opacity:1;fill-rule:nonzero;stroke:none"
         id="path3747-6"
         inkscape:connector-curvature="0" /><path
         style="fill:#666666;fill-opacity:1"
         id="path3063-0"
         d="m -407.90144,93.150556 c -30.19267,0 -55.57334,24.576134 -55.57334,54.768804 0,30.19267 25.38067,54.7688 55.57334,54.7688 16.6978,0 28.58361,-6.5425 37.5397,-15.08874 l -10.54998,-10.54998 c -6.40588,6.01121 -15.08874,10.6866 -26.98972,10.6866 -22.04111,0 -39.27021,-17.7604 -39.27021,-39.8015 0,-22.04111 17.2291,-39.8015 39.27021,-39.8015 14.29939,0 22.43578,5.73798 27.65764,10.95983 4.28071,4.28071 7.07379,10.41336 8.15156,18.83816 h -35.67258 v 14.96731 h 50.21485 c 0.5313,-2.67165 0.80453,-5.87459 0.80453,-9.35077 0,-11.21789 -3.06632,-25.10743 -12.96357,-35.00467 -9.60882,-10.049046 -21.90448,-15.392344 -38.19243,-15.392344 z m 126.50865,35.262724 c 0,-20.3106 -15.84774,-35.262724 -35.29309,-35.262724 -19.44535,0 -35.29309,14.967304 -35.29309,35.262724 0,20.43205 15.84774,35.26273 35.29309,35.26273 19.44535,0 35.29309,-14.8155 35.29309,-35.26273 z m -15.45306,0 c 0,12.69034 -9.18379,21.3732 -19.84003,21.3732 -10.65624,0 -19.84003,-8.68286 -19.84003,-21.3732 0,-12.55371 9.18379,-21.37318 19.84003,-21.37318 10.65624,0 19.84003,8.81947 19.84003,21.37318 z m 92.97642,0 c 0,-20.3106 -15.89327,-35.262724 -35.39935,-35.262724 -19.50607,0 -35.39935,14.967304 -35.39935,35.262724 0,20.43205 15.89328,35.26273 35.39935,35.26273 19.50608,0 35.39935,-14.8155 35.39935,-35.26273 z m -15.4986,0 c 0,12.69034 -9.21415,21.3732 -19.90075,21.3732 -10.68659,0 -19.90075,-8.68286 -19.90075,-21.3732 0,-12.55371 9.21416,-21.37318 19.90075,-21.37318 10.6866,0 19.90075,8.81947 19.90075,21.37318 z m 89.39398,33.13756 V 98.235797 c 0,-26.048578 -15.36198,-36.735174 -33.53223,-36.735174 -17.09248,0 -27.3844,11.491127 -31.25525,20.841898 l 13.49486,5.616535 c 2.39841,-5.737973 8.28818,-12.553714 17.76039,-12.553714 11.62775,0 18.83817,7.210416 18.83817,20.70528 v 5.070058 h -0.5313 c -3.47618,-4.280707 -10.1553,-8.014944 -18.56492,-8.014944 -17.63896,0 -33.75993,15.361984 -33.75993,35.126104 0,19.90075 16.12097,35.39935 33.75993,35.39935 8.40962,0 15.08874,-3.73423 18.56492,-7.87832 h 0.5313 v 5.73797 h 14.69406 z m -13.63148,-33.259 c 0,12.4171 -8.28818,21.50982 -18.83816,21.50982 -10.68659,0 -19.64269,-9.07754 -19.64269,-21.50982 0,-12.29565 8.9561,-21.23656 19.64269,-21.23656 10.56516,-0.0152 18.83816,8.94091 18.83816,21.23656 z m 38.54158,70.22187 V 95.290911 h -15.40753 V 198.51371 h 15.40753 z m 59.33793,-81.71299 12.02242,-8.01495 c -3.87086,-5.73797 -13.22163,-15.635214 -29.38814,-15.635214 -20.03737,0 -35.00467,15.498604 -35.00467,35.262724 0,20.97852 15.08874,35.26273 33.25899,35.26273 18.30687,0 27.24778,-14.55745 30.19267,-22.43578 l 1.60906,-4.00747 -47.14853,-19.50607 c 3.6128,-7.0738 9.21415,-10.68659 17.09248,-10.68659 7.87833,0 13.35824,3.88603 17.36572,9.76062 z m -37.00841,12.69033 31.52849,13.08501 c -1.7305,4.40215 -6.95236,7.48365 -13.08501,7.48365 -7.89351,0 -18.83816,-6.95236 -18.44348,-20.56866 z"
         inkscape:connector-curvature="0" /><path
         style="fill:#666666;fill-opacity:1"
         id="path3067-2"
         d="m -25.23326,162.08213 v -1.13848 h -2.42877 v -7.96941 h -1.21439 v 7.96941 h -2.42877 v 1.13848 h 6.07193 z m 10.62588,0 v -9.10789 h -1.21439 v 5.52545 c 0,0.72864 0.0455,1.76086 0.0455,1.76086 h -0.0455 l -2.83863,-7.28631 h -0.98668 l -2.83863,7.27113 h -0.0455 c 0,0 0.0455,-1.03222 0.0455,-1.76086 v -5.51027 h -1.22957 v 9.10789 h 1.70014 l 2.82345,-7.43811 h 0.0455 l 2.82345,7.43811 h 1.71532 z"
         inkscape:connector-curvature="0" /></g></g></svg>