<?xml version="1.0" encoding="UTF-8" standalone="no"?>
<!-- Created with Inkscape (http://www.inkscape.org/) -->

<svg
   xmlns:dc="http://purl.org/dc/elements/1.1/"
   xmlns:cc="http://creativecommons.org/ns#"
   xmlns:rdf="http://www.w3.org/1999/02/22-rdf-syntax-ns#"
   xmlns:svg="http://www.w3.org/2000/svg"
   xmlns="http://www.w3.org/2000/svg"
   xmlns:sodipodi="http://sodipodi.sourceforge.net/DTD/sodipodi-0.dtd"
   xmlns:inkscape="http://www.inkscape.org/namespaces/inkscape"
   id="svg3735"
   version="1.1"
   inkscape:version="0.48.4 r9939"
   width="640.51898"
   height="406.71188"
   xml:space="preserve"
   sodipodi:docname="t_shirt_2015_back_participant_and_mentor.pdf"><metadata
     id="metadata3741"><rdf:RDF><cc:Work
         rdf:about=""><dc:format>image/svg+xml</dc:format><dc:type
           rdf:resource="http://purl.org/dc/dcmitype/StillImage" /><dc:title></dc:title></cc:Work></rdf:RDF></metadata><defs
     id="defs3739" /><sodipodi:namedview
     pagecolor="#ffffff"
     bordercolor="#666666"
     borderopacity="1"
     objecttolerance="10"
     gridtolerance="10"
     guidetolerance="10"
     inkscape:pageopacity="0"
     inkscape:pageshadow="2"
     inkscape:window-width="1600"
     inkscape:window-height="876"
     id="namedview3737"
     showgrid="false"
     inkscape:document-units="cm"
     units="cm"
     showguides="true"
     inkscape:guide-bbox="true"
     fit-margin-top="0"
     fit-margin-left="0"
     fit-margin-right="0"
     fit-margin-bottom="0"
     inkscape:zoom="0.49312356"
     inkscape:cx="414.12895"
     inkscape:cy="131.32924"
     inkscape:window-x="0"
     inkscape:window-y="24"
     inkscape:window-maximized="1"
     inkscape:current-layer="g3743"><sodipodi:guide
       orientation="1,0"
       position="640.81302,391.75809"
       id="guide3779" /></sodipodi:namedview><g
     id="g3743"
     inkscape:groupmode="layer"
     inkscape:label="t_shirt_2015_back_participant_and_mentor"
     transform="matrix(1.25,0,0,-1.25,0,442.83844)"><g
       id="g3745"
       transform="matrix(0.84913851,0,0,0.84913851,0,28.902949)"><path
         d="m 8.77,287.721 0,93.484 11.437,1.969 0,-32.719 c 2.133,0.813 4.41,1.442 6.828,1.891 2.414,0.457 4.813,0.687 7.188,0.687 5.082,0 9.304,-0.718 12.672,-2.156 3.363,-1.429 6.05,-3.433 8.062,-6.015 2.008,-2.586 3.422,-5.684 4.234,-9.297 0.821,-3.606 1.235,-7.578 1.235,-11.922 l 0,-35.922 -11.438,0 0,33.453 c 0,3.938 -0.265,7.297 -0.797,10.078 -0.531,2.789 -1.418,5.047 -2.656,6.766 -1.23,1.726 -2.871,2.984 -4.922,3.765 -2.043,0.782 -4.578,1.172 -7.609,1.172 -1.242,0 -2.516,-0.086 -3.828,-0.25 -1.305,-0.168 -2.555,-0.355 -3.75,-0.562 -1.188,-0.199 -2.258,-0.422 -3.203,-0.672 -0.938,-0.25 -1.61,-0.453 -2.016,-0.609 l 0,-53.141 -11.437,0 z m 91.566,8.234 c 2.707,0 5.102,0.063 7.187,0.188 2.094,0.125 3.836,0.351 5.235,0.687 l 0,19.063 c -0.813,0.406 -2.149,0.75 -4,1.031 -1.844,0.289 -4.078,0.438 -6.703,0.438 -1.719,0 -3.543,-0.125 -5.469,-0.375 -1.93,-0.243 -3.695,-0.75 -5.297,-1.532 -1.594,-0.781 -2.93,-1.851 -4,-3.203 -1.062,-1.344 -1.594,-3.125 -1.594,-5.344 0,-4.105 1.313,-6.96 3.938,-8.562 2.625,-1.594 6.191,-2.391 10.703,-2.391 z m -0.984,57.328 c 4.593,0 8.468,-0.601 11.625,-1.796 3.156,-1.188 5.695,-2.871 7.625,-5.047 1.925,-2.168 3.3,-4.746 4.125,-7.735 0.82,-2.992 1.234,-6.293 1.234,-9.906 l 0,-39.969 c -0.992,-0.168 -2.367,-0.398 -4.125,-0.687 -1.762,-0.281 -3.75,-0.539 -5.969,-0.781 -2.211,-0.25 -4.605,-0.477 -7.187,-0.688 -2.586,-0.207 -5.149,-0.312 -7.688,-0.312 -3.617,0 -6.937,0.371 -9.969,1.109 -3.031,0.738 -5.656,1.906 -7.875,3.5 -2.21,1.602 -3.933,3.719 -5.171,6.344 -1.231,2.625 -1.844,5.781 -1.844,9.468 0,3.532 0.719,6.567 2.156,9.11 1.438,2.539 3.383,4.586 5.844,6.14 2.457,1.563 5.328,2.711 8.609,3.454 3.281,0.738 6.723,1.109 10.328,1.109 1.157,0 2.348,-0.063 3.578,-0.188 1.227,-0.125 2.395,-0.292 3.5,-0.5 1.102,-0.199 2.067,-0.382 2.891,-0.546 0.82,-0.168 1.395,-0.293 1.719,-0.375 l 0,3.203 c 0,1.883 -0.203,3.75 -0.61,5.593 -0.406,1.844 -1.148,3.485 -2.218,4.922 -1.063,1.438 -2.516,2.582 -4.36,3.438 -1.843,0.863 -4.246,1.297 -7.203,1.297 -3.773,0 -7.074,-0.266 -9.906,-0.797 -2.824,-0.531 -4.934,-1.086 -6.328,-1.656 l -1.344,9.468 c 1.469,0.657 3.926,1.289 7.375,1.907 3.445,0.613 7.176,0.921 11.188,0.921 z m 58.156,-57.328 c 4.676,0 8.14,0.614 10.39,1.844 2.258,1.238 3.391,3.207 3.391,5.906 0,2.789 -1.109,5.004 -3.328,6.641 -2.211,1.645 -5.856,3.492 -10.938,5.547 -2.461,0.976 -4.82,1.976 -7.078,3 -2.25,1.031 -4.199,2.242 -5.843,3.64 -1.637,1.395 -2.95,3.071 -3.938,5.032 -0.98,1.968 -1.469,4.39 -1.469,7.265 0,5.657 2.086,10.145 6.266,13.469 4.187,3.32 9.891,4.984 17.109,4.984 1.801,0 3.602,-0.105 5.407,-0.312 1.8,-0.211 3.476,-0.461 5.031,-0.75 1.562,-0.281 2.937,-0.59 4.125,-0.922 1.195,-0.324 2.117,-0.605 2.765,-0.844 l -2.078,-9.843 c -1.23,0.656 -3.156,1.332 -5.781,2.031 -2.625,0.695 -5.781,1.047 -9.469,1.047 -3.199,0 -5.992,-0.637 -8.375,-1.907 -2.375,-1.273 -3.562,-3.261 -3.562,-5.968 0,-1.399 0.265,-2.633 0.797,-3.703 0.531,-1.063 1.347,-2.028 2.453,-2.891 1.113,-0.855 2.488,-1.652 4.125,-2.391 1.644,-0.742 3.613,-1.515 5.906,-2.328 3.031,-1.148 5.734,-2.277 8.109,-3.39 2.383,-1.106 4.415,-2.399 6.094,-3.875 1.688,-1.469 2.977,-3.25 3.875,-5.344 0.906,-2.094 1.36,-4.656 1.36,-7.688 0,-5.906 -2.196,-10.375 -6.579,-13.406 -4.386,-3.031 -10.64,-4.547 -18.765,-4.547 -5.656,0 -10.086,0.477 -13.281,1.422 -3.2,0.938 -5.372,1.649 -6.516,2.141 l 2.094,9.843 c 1.312,-0.5 3.398,-1.246 6.265,-2.234 2.875,-0.98 6.688,-1.469 11.438,-1.469 z m 62.847,26.938 c 2.457,-1.887 5.055,-4.227 7.797,-7.016 2.75,-2.781 5.457,-5.793 8.125,-9.031 2.664,-3.242 5.188,-6.523 7.563,-9.844 2.383,-3.312 4.394,-6.406 6.031,-9.281 l -13.406,0 c -1.719,2.875 -3.711,5.805 -5.969,8.797 -2.25,2.988 -4.609,5.859 -7.078,8.609 -2.461,2.75 -4.961,5.27 -7.5,7.563 -2.543,2.289 -4.961,4.218 -7.25,5.781 l 0,-30.75 -11.438,0 0,93.484 11.438,1.969 0,-58.312 c 1.969,1.968 4.141,4.14 6.516,6.515 2.375,2.383 4.707,4.805 7,7.266 2.3,2.457 4.476,4.812 6.531,7.062 2.051,2.258 3.812,4.25 5.281,5.969 l 13.422,0 c -1.898,-2.043 -3.953,-4.297 -6.172,-6.766 -2.211,-2.46 -4.5,-4.937 -6.875,-7.437 -2.375,-2.5 -4.777,-5 -7.203,-7.5 -2.418,-2.5 -4.688,-4.859 -6.813,-7.078 z m 34.122,-3.313 c 0,5.657 0.816,10.594 2.453,14.813 1.644,4.226 3.82,7.734 6.531,10.515 2.707,2.79 5.82,4.883 9.344,6.282 3.531,1.394 7.14,2.093 10.828,2.093 8.613,0 15.211,-2.687 19.797,-8.062 4.593,-5.367 6.89,-13.543 6.89,-24.531 0,-0.5 0,-1.141 0,-1.922 0,-0.774 -0.043,-1.485 -0.125,-2.141 l -43.781,0 c 0.488,-6.648 2.414,-11.695 5.781,-15.14 3.364,-3.438 8.614,-5.157 15.75,-5.157 4.008,0 7.391,0.348 10.141,1.047 2.75,0.696 4.82,1.375 6.219,2.031 l 1.593,-9.593 c -1.398,-0.742 -3.839,-1.516 -7.328,-2.328 -3.48,-0.821 -7.433,-1.235 -11.859,-1.235 -5.574,0 -10.391,0.84 -14.453,2.516 -4.063,1.676 -7.406,3.988 -10.031,6.937 -2.618,2.957 -4.563,6.461 -5.844,10.516 -1.274,4.062 -1.906,8.516 -1.906,13.359 z m 43.921,6.266 c 0.082,5.164 -1.21,9.41 -3.875,12.734 -2.668,3.321 -6.339,4.985 -11.015,4.985 -2.625,0 -4.946,-0.516 -6.953,-1.547 -2,-1.024 -3.7,-2.356 -5.094,-4 -1.399,-1.637 -2.484,-3.524 -3.266,-5.656 -0.781,-2.125 -1.293,-4.297 -1.531,-6.516 l 31.734,0 z m 47.332,-39.359 c -7.054,0.168 -12.058,1.679 -15.015,4.546 -2.949,2.875 -4.422,7.348 -4.422,13.422 l 0,76.75 11.437,1.969 0,-76.875 c 0,-1.887 0.161,-3.449 0.485,-4.687 0.332,-1.231 0.867,-2.215 1.609,-2.954 0.738,-0.73 1.723,-1.281 2.953,-1.656 1.227,-0.367 2.743,-0.672 4.547,-0.922 l -1.594,-9.593 z m 33.528,0 c -7.055,0.168 -12.059,1.679 -15.016,4.546 -2.949,2.875 -4.422,7.348 -4.422,13.422 l 0,76.75 11.438,1.969 0,-76.875 c 0,-1.887 0.16,-3.449 0.484,-4.687 0.332,-1.231 0.867,-2.215 1.61,-2.954 0.738,-0.73 1.722,-1.281 2.953,-1.656 1.226,-0.367 2.742,-0.672 4.547,-0.922 l -1.594,-9.593 z m 27.867,7.875 c 0,-2.211 -0.742,-4.137 -2.219,-5.782 -1.48,-1.632 -3.492,-2.453 -6.031,-2.453 -2.543,0 -4.555,0.821 -6.031,2.453 -1.469,1.645 -2.203,3.571 -2.203,5.782 0,2.218 0.734,4.144 2.203,5.781 1.476,1.644 3.488,2.469 6.031,2.469 2.539,0 4.551,-0.825 6.031,-2.469 1.477,-1.637 2.219,-3.563 2.219,-5.781 z m 73.098,25.343 c 0,-5.086 -0.743,-9.679 -2.219,-13.781 -1.469,-4.105 -3.539,-7.633 -6.203,-10.578 -2.668,-2.949 -5.852,-5.227 -9.547,-6.828 -3.688,-1.594 -7.703,-2.391 -12.047,-2.391 -4.344,0 -8.359,0.797 -12.047,2.391 -3.687,1.601 -6.867,3.879 -9.531,6.828 -2.668,2.945 -4.742,6.473 -6.219,10.578 -1.48,4.102 -2.219,8.695 -2.219,13.781 0,5 0.739,9.567 2.219,13.703 1.477,4.145 3.551,7.692 6.219,10.641 2.664,2.957 5.844,5.234 9.531,6.828 3.688,1.602 7.703,2.406 12.047,2.406 4.344,0 8.359,-0.804 12.047,-2.406 3.695,-1.594 6.879,-3.871 9.547,-6.828 2.664,-2.949 4.734,-6.496 6.203,-10.641 1.476,-4.136 2.219,-8.703 2.219,-13.703 z m -11.938,0 c 0,7.207 -1.621,12.922 -4.859,17.141 -3.231,4.227 -7.637,6.344 -13.219,6.344 -5.574,0 -9.98,-2.117 -13.219,-6.344 -3.242,-4.219 -4.859,-9.934 -4.859,-17.141 0,-7.218 1.617,-12.945 4.859,-17.172 3.239,-4.218 7.645,-6.328 13.219,-6.328 5.582,0 9.988,2.11 13.219,6.328 3.238,4.227 4.859,9.954 4.859,17.172 z m 51.41,33.328 c 0.989,0 2.117,-0.062 3.391,-0.187 1.269,-0.125 2.519,-0.293 3.75,-0.5 1.226,-0.199 2.352,-0.402 3.375,-0.609 1.031,-0.2 1.789,-0.383 2.281,-0.547 l -1.969,-9.969 c -0.906,0.332 -2.406,0.723 -4.5,1.172 -2.085,0.445 -4.765,0.672 -8.046,0.672 -2.137,0 -4.25,-0.227 -6.344,-0.672 -2.086,-0.449 -3.453,-0.758 -4.11,-0.922 l 0,-53.75 -11.437,0 0,61.25 c 2.707,0.988 6.066,1.91 10.078,2.766 4.02,0.863 8.531,1.296 13.531,1.296 z m 63.903,-58.921 c -0.981,-0.657 -2.887,-1.496 -5.719,-2.516 -2.836,-1.023 -6.137,-1.531 -9.906,-1.531 -3.856,0 -7.485,0.613 -10.891,1.843 -3.398,1.227 -6.367,3.133 -8.906,5.719 -2.543,2.582 -4.555,5.801 -6.031,9.656 -1.481,3.852 -2.219,8.442 -2.219,13.766 0,4.676 0.695,8.961 2.094,12.859 1.394,3.895 3.425,7.254 6.093,10.079 2.664,2.832 5.926,5.046 9.782,6.64 3.851,1.602 8.195,2.406 13.031,2.406 5.332,0 9.984,-0.39 13.953,-1.171 3.976,-0.782 7.32,-1.5 10.031,-2.157 l 0,-57.062 c 0,-9.844 -2.543,-16.977 -7.625,-21.406 -5.086,-4.426 -12.793,-6.641 -23.125,-6.641 -4.012,0 -7.805,0.328 -11.375,0.984 -3.562,0.657 -6.656,1.438 -9.281,2.344 l 2.094,9.953 c 2.289,-0.894 5.097,-1.691 8.422,-2.39 3.32,-0.696 6.785,-1.047 10.39,-1.047 6.801,0 11.695,1.355 14.688,4.062 3,2.699 4.5,7 4.5,12.906 l 0,2.704 z m -0.125,47.484 c -1.149,0.32 -2.684,0.629 -4.61,0.922 -1.929,0.289 -4.531,0.437 -7.812,0.437 -6.149,0 -10.883,-2.011 -14.203,-6.031 -3.325,-4.023 -4.985,-9.355 -4.985,-16 0,-3.687 0.469,-6.844 1.407,-9.469 0.945,-2.625 2.218,-4.797 3.812,-6.515 1.602,-1.719 3.453,-2.992 5.547,-3.813 2.094,-0.824 4.242,-1.234 6.453,-1.234 3.031,0 5.816,0.43 8.359,1.297 2.539,0.863 4.551,1.867 6.032,3.015 l 0,37.391 z"
         style="fill:#ffffff;fill-opacity:1;fill-rule:nonzero;stroke:none"
         id="path3747"
         inkscape:connector-curvature="0" /><path
         d="m 222.199,72.323 c 4.68,6.152 5.809,13.808 5.809,21.375 0,16.945 -8.133,49.257 -32.149,49.257 -6.406,0 -12.777,-2.496 -17.437,-6.539 -7.559,-6.718 -8.918,-15.183 -8.918,-23.476 0,-19.071 9.496,-50.442 32.906,-50.442 7.59,0 15.328,3.645 19.789,9.825 z M 197.766,56.526 c -30.828,0 -47.282,24.113 -47.282,45.863 0,25.473 20.731,47.23 50.2,47.23 28.515,0 46.347,-22.355 46.347,-45.859 0,-22.93 -17.625,-47.234 -49.265,-47.234"
         style="fill:#ffffff;fill-opacity:1;fill-rule:nonzero;stroke:none"
         id="path3749"
         inkscape:connector-curvature="0" /><path
         d="m 490.191,59.225 5.735,5.726 -10.696,1.336 c -2.703,0.329 -4.707,2.582 -4.707,5.364 l 0,113.605 c 0,1.41 0.571,2.719 1.493,3.645 l 7.07,7.058 -32.043,0 -8.289,-8.281 12.441,0 0,-117.754 c 0,-1.41 -0.578,-2.719 -1.5,-3.644 l -7.074,-7.055 37.57,0"
         style="fill:#ffffff;fill-opacity:1;fill-rule:nonzero;stroke:none"
         id="path3751"
         inkscape:connector-curvature="0" /><path
         d="m 537.246,143.061 c 10.574,0 19.383,-8.766 19.383,-16.508 0,-2.715 -1.953,-3.871 -5.672,-5.23 L 515.684,107.03 c -5.481,29.128 13.554,36.031 21.562,36.031 z m 18.516,-76.52 c -17.2,0 -33.055,12.418 -38.739,34.473 l 59.477,24.031 c -3.184,11.477 -12.211,24.574 -35.676,24.574 -19.336,0 -42.965,-14.711 -42.965,-44.703 0,-23.629 15.813,-48.39 45.969,-48.39 6.258,0 16.043,0.394 26.027,7.547 3.782,2.64 6.973,5.816 9.633,9.304 -6.656,-3.285 -13.75,-6.836 -23.726,-6.836"
         style="fill:#ffffff;fill-opacity:1;fill-rule:nonzero;stroke:none"
         id="path3753"
         inkscape:connector-curvature="0" /><path
         d="m 328.551,72.323 c 4.679,6.152 5.812,13.808 5.812,21.375 0,16.945 -8.136,49.257 -32.148,49.257 -6.406,0 -12.781,-2.496 -17.442,-6.539 -7.558,-6.718 -8.918,-15.183 -8.918,-23.476 0,-19.071 9.497,-50.442 32.911,-50.442 7.586,0 15.324,3.645 19.785,9.825 z m -24.43,-15.797 c -30.828,0 -47.285,24.113 -47.285,45.863 0,25.473 20.73,47.23 50.203,47.23 28.516,0 46.344,-22.355 46.344,-45.859 0,-22.93 -17.625,-47.234 -49.262,-47.234"
         style="fill:#ffffff;fill-opacity:1;fill-rule:nonzero;stroke:none"
         id="path3755"
         inkscape:connector-curvature="0" /><path
         d="m 405.594,8.6 c -20.973,0 -34.532,10.027 -34.532,23.953 0,13.891 12.543,18.617 16.864,20.199 8.23,2.75 18.824,3.117 20.617,3.117 1.934,0 2.914,-0.003 4.465,-0.164 14.926,-10.672 21.383,-15.918 21.383,-25.925 0,-11.161 -10.02,-21.18 -28.797,-21.18 z m 0.254,78.762 c -16.114,0 -24.875,20.027 -24.875,35.246 0,14.449 8.57,20.867 17.543,20.867 17.254,0 26.172,-22.414 26.172,-36.047 0,-16.812 -13.497,-20.066 -18.84,-20.066 z m 24.961,-22.649 -7.063,5.469 c -2.148,1.769 -5.172,4.105 -5.172,8.41 0,4.344 2.797,7.652 5.321,9.613 8.437,6.551 16.503,13.543 16.503,28.012 0,13.176 -7.941,20.856 -12.886,25.191 l 10.961,0 8.211,8.211 -40.262,0 c -28.156,0 -42.473,-17.535 -42.473,-36.968 0,-15.039 11.418,-31.055 32.028,-31.055 l 5.816,0 c -0.742,-2.086 -1.52,-4.441 -1.52,-7.184 0,-6.062 2.856,-9.207 5.836,-12.57 -8.824,-0.578 -25.308,-2.258 -37.457,-9.687 -11.586,-6.903 -15.062,-16.872 -15.062,-23.911 0,-14.523 13.918,-28.246 42.336,-28.246 33.738,0 51.308,18.817 51.308,37.235 0,13.586 -7.812,20.218 -16.425,27.48"
         style="fill:#ffffff;fill-opacity:1;fill-rule:nonzero;stroke:none"
         id="path3757"
         inkscape:connector-curvature="0" /><path
         d="m 97.93,110.323 -8.289,-8.278 24.863,0 0,-34.972 C 108.797,65.205 99.621,63.19 85.703,63.19 c -37.469,0 -64.641,33.058 -64.641,70.164 0,33.84 22.254,57.566 52.825,57.566 17.742,0 30.121,-5.758 40.617,-15.726 l 0,-11.418 18.922,18.925 c -4.348,2.977 -12.008,7.993 -25.563,11.981 -8.765,2.555 -19.09,3.867 -29.695,3.867 C 26.891,198.549 0,160.901 0,127.838 0,80.295 34.746,54.557 74.957,54.557 c 27.836,0 49.688,6.297 58.883,8.832 l 0,36.23 c 0,1.411 0.566,2.711 1.492,3.633 l 7.07,7.071 -44.472,0"
         style="fill:#ffffff;fill-opacity:1;fill-rule:nonzero;stroke:none"
         id="path3759"
         inkscape:connector-curvature="0" /><path
         d="m 601.516,149.69 -4.282,-10.5 -4.281,10.5 -1.933,0 0,-12.434 1.382,0 0,10.36 4.317,-10.36 1.035,0 4.316,10.36 0,-10.36 1.383,0 0,12.434 -1.937,0 z m -21.547,-1.383 4.144,0 0,-11.051 1.383,0 0,11.051 4.145,0 0,1.383 -9.672,0 0,-1.383"
         style="fill:#ffffff;fill-opacity:1;fill-rule:nonzero;stroke:none"
         id="path3761"
         inkscape:connector-curvature="0" /></g></g></svg>