<?xml version="1.0" encoding="UTF-8" standalone="no"?>
<!-- Created with Inkscape (http://www.inkscape.org/) -->

<svg
   xmlns:dc="http://purl.org/dc/elements/1.1/"
   xmlns:cc="http://creativecommons.org/ns#"
   xmlns:rdf="http://www.w3.org/1999/02/22-rdf-syntax-ns#"
   xmlns:svg="http://www.w3.org/2000/svg"
   xmlns="http://www.w3.org/2000/svg"
   xmlns:sodipodi="http://sodipodi.sourceforge.net/DTD/sodipodi-0.dtd"
   xmlns:inkscape="http://www.inkscape.org/namespaces/inkscape"
   width="638.74854"
   height="803.65173"
   id="svg4171"
   version="1.1"
   inkscape:version="0.48.4 r9939"
   sodipodi:docname="t_shirt_2015_front_participant.svg"
   inkscape:export-filename="/home/simon/repositories/github/meiersi/HaskellerZ/zurihac2015/t_shirt_2015_front_participant.png"
   inkscape:export-xdpi="600.03601"
   inkscape:export-ydpi="600.03601">
  <defs
     id="defs4173">
    <clipPath
       id="clip1">
      <path
         id="path4244"
         d="m 0,340.15625 481.89062,0 L 481.89062,0 0,0 0,340.15625 z m 0,0"
         inkscape:connector-curvature="0" />
    </clipPath>
    <filter
       id="filter4259"
       inkscape:label="Invert"
       x="0"
       y="0"
       width="1"
       height="1"
       inkscape:menu="Color"
       inkscape:menu-tooltip="Invert colors"
       color-interpolation-filters="sRGB">
      <feColorMatrix
         id="feColorMatrix4261"
         type="saturate"
         values="1"
         result="fbSourceGraphic" />
      <feColorMatrix
         id="feColorMatrix4263"
         in="fbSourceGraphic"
         values="-1 0 0 0 1 0 -1 0 0 1 0 0 -1 0 1 0 0 0 1 0 " />
    </filter>
  </defs>
  <sodipodi:namedview
     id="base"
     pagecolor="#000000"
     bordercolor="#666666"
     borderopacity="1.0"
     inkscape:pageopacity="0"
     inkscape:pageshadow="2"
     inkscape:zoom="0.49497475"
     inkscape:cx="968.96424"
     inkscape:cy="357.09071"
     inkscape:document-units="cm"
     inkscape:current-layer="g3802"
     showgrid="false"
     inkscape:window-width="1600"
     inkscape:window-height="876"
     inkscape:window-x="0"
     inkscape:window-y="24"
     inkscape:window-maximized="1"
     showguides="true"
     inkscape:guide-bbox="true"
     fit-margin-top="0"
     fit-margin-left="0"
     fit-margin-right="0"
     fit-margin-bottom="0"
     units="cm">
    <sodipodi:guide
       orientation="1,0"
       position="5231.3422,-1203.0317"
       id="guide3551" />
    <sodipodi:guide
       orientation="1,0"
       position="6045.0131,-1055.8286"
       id="guide3553" />
  </sodipodi:namedview>
  <metadata
     id="metadata4176">
    <rdf:RDF>
      <cc:Work
         rdf:about="">
        <dc:format>image/svg+xml</dc:format>
        <dc:type
           rdf:resource="http://purl.org/dc/dcmitype/StillImage" />
        <dc:title></dc:title>
      </cc:Work>
    </rdf:RDF>
  </metadata>
  <g
     inkscape:groupmode="layer"
     id="layer2"
     inkscape:label="backgound"
     transform="translate(2974.845,1087.5352)" />
  <g
     inkscape:label="Layer 1"
     inkscape:groupmode="layer"
     id="layer1"
     transform="translate(2974.845,1087.5352)">
    <g
       id="g4313"
       transform="matrix(8.3548159,0,0,-8.3548159,-509.86834,586.98709)" />
    <g
       id="g4323"
       transform="matrix(8.3548159,0,0,-8.3548159,-509.86834,586.98709)" />
    <g
       id="g4325"
       transform="matrix(8.3548159,0,0,-8.3548159,-509.86834,586.98709)" />
    <g
       id="g4327"
       transform="matrix(8.3548159,0,0,-8.3548159,-509.86834,586.98709)" />
    <g
       id="g4329"
       transform="matrix(8.3548159,0,0,-8.3548159,-509.86834,586.98709)" />
    <g
       id="g4331"
       transform="matrix(8.3548159,0,0,-8.3548159,-509.86834,586.98709)" />
    <g
       id="g4333"
       transform="matrix(8.3548159,0,0,-8.3548159,-509.86834,586.98709)" />
    <g
       id="g4339"
       transform="matrix(8.3548159,0,0,-8.3548159,-509.86834,586.98709)" />
    <g
       id="g4341"
       transform="matrix(8.3548159,0,0,-8.3548159,-509.86834,586.98709)" />
    <g
       id="g4343"
       transform="matrix(8.3548159,0,0,-8.3548159,-509.86834,586.98709)" />
    <g
       id="g4345"
       transform="matrix(8.3548159,0,0,-8.3548159,-509.86834,586.98709)" />
    <flowRoot
       xml:space="preserve"
       id="flowRoot5104"
       style="font-size:40px;font-style:normal;font-variant:normal;font-weight:normal;font-stretch:normal;line-height:125%;letter-spacing:0px;word-spacing:0px;fill:#000000;fill-opacity:1;stroke:none;font-family:Ubuntu Mono;-inkscape-font-specification:Ubuntu Mono"><flowRegion
         id="flowRegion5106"><rect
           id="rect5108"
           width="85.714287"
           height="42.857143"
           x="-121.42857"
           y="658.07648" /></flowRegion><flowPara
         id="flowPara5110" /></flowRoot>    <flowRoot
       xml:space="preserve"
       id="flowRoot3184"
       style="font-size:40px;font-style:normal;font-variant:normal;font-weight:normal;font-stretch:normal;line-height:125%;letter-spacing:0px;word-spacing:0px;fill:#000000;fill-opacity:1;stroke:none;font-family:Ubuntu Mono;-inkscape-font-specification:Ubuntu Mono"><flowRegion
         id="flowRegion3186"><rect
           id="rect3188"
           width="541.44177"
           height="242.43661"
           x="121.21831"
           y="1771.5908" /></flowRegion><flowPara
         id="flowPara3190" /></flowRoot>    <g
       id="g3802"
       transform="matrix(1.1009875,0,0,1.1009875,-3273.0687,-720.95248)">
      <g
         id="g3599">
        <g
           id="g3142-7-8"
           transform="matrix(1.097318,0,0,1.097318,567.31608,-340.56268)">
          <g
             id="g3144-9-0"
             transform="matrix(7.3328498,0,0,-7.3328498,-276.17264,384.38226)"
             style="fill:#b3b3b3">
            <path
               id="path3146-3-2"
               style="fill:#b3b3b3;fill-opacity:1;fill-rule:nonzero;stroke:none"
               d="m 1.10858,1.66296 14.94087,22.41112 c 0.61226,0.91846 0.61226,2.40752 0,3.32596 L 1.10858,49.81116 c -0.61226,0.91844 -0.21651,1.66298 0.88397,1.66298 l 8.88343,0 c 1.10046,0 2.48887,-0.74454 3.10113,-1.66298 L 28.91798,27.40004 c 0.61226,-0.91844 0.61226,-2.4075 0,-3.32596 L 13.97711,1.66296 C 13.36485,0.74452 11.97644,0 10.87598,0 L 1.99255,0 C 0.89207,0 0.49632,0.74452 1.10858,1.66296 z"
               inkscape:connector-curvature="0" />
          </g>
          <g
             id="g3148-4-2"
             transform="matrix(7.3328498,0,0,-7.3328498,-276.17264,384.38226)"
             style="fill:#ffffff">
            <path
               id="path3150-0-5"
               style="fill:#ffffff;fill-opacity:1;fill-rule:nonzero;stroke:none"
               d="M 33.2075,27.40004 18.26663,49.81116 c -0.61226,0.91844 -0.2165,1.66298 0.88396,1.66298 l 8.88344,0 c 1.10046,0 2.48889,-0.74454 3.10117,-1.66298 L 63.23405,1.66296 C 63.84633,0.74452 63.45059,0 62.35011,0 l -8.88342,0 c -1.10048,0 -2.48894,0.74452 -3.10124,1.66296 l -8.50641,12.75972 c -0.61231,0.91845 -1.60506,0.91845 -2.21736,0 L 31.13525,1.66296 C 30.52295,0.74452 29.13449,0 28.03403,0 L 19.15059,0 C 18.05013,0 17.65437,0.74452 18.26663,1.66296 L 33.2075,24.07408 c 0.61226,0.91846 0.61226,2.40752 0,3.32596 z"
               inkscape:connector-curvature="0" />
          </g>
          <g
             id="g3152-6-4"
             transform="matrix(7.3328498,0,0,-7.3328498,-276.17264,384.38226)">
            <path
               id="path3154-9-1"
               style="fill:#b3b3b3;fill-opacity:1;fill-rule:nonzero;stroke:none"
               d="m 57.51857,16.67717 -3.50247,5.2536 c -0.61228,0.91844 -0.21654,1.66298 0.88394,1.66298 l 16.0291,0 c 1.10048,0 1.99255,-0.89207 1.99255,-1.99255 l 0,-4.59536 c 0,-1.10048 -0.89207,-1.9925 -1.99255,-1.99246 l -10.3094,7.2e-4 c -1.10047,4e-5 -2.4889,0.74463 -3.10117,1.66307 z"
               inkscape:connector-curvature="0" />
          </g>
          <g
             id="g3156-3-4"
             transform="matrix(7.3328498,0,0,-7.3328498,-276.17264,384.38226)"
             style="fill:#b3b3b3">
            <path
               id="path3158-4-0"
               style="fill:#b3b3b3;fill-opacity:1;fill-rule:nonzero;stroke:none"
               d="m 48.93898,29.5465 -3.50241,5.25363 c -0.61229,0.91844 -0.21657,1.66296 0.8839,1.66296 l 24.60867,0 c 1.10048,0 1.99255,-0.89208 1.99255,-1.99255 l 0,-4.59617 c 0,-1.10047 -0.89207,-1.99249 -1.99255,-1.99243 l -18.88896,0.0015 c -1.10047,7e-5 -2.48891,0.74465 -3.1012,1.6631 z"
               inkscape:connector-curvature="0" />
          </g>
        </g>
        <g
           id="g3572"
           transform="translate(2.0202015,-2.510376e-5)">
          <text
             sodipodi:linespacing="125%"
             id="text3160-4-5"
             y="248.69206"
             x="557.92072"
             style="font-size:153.25965881px;font-style:normal;font-variant:normal;font-weight:normal;font-stretch:normal;line-height:125%;letter-spacing:0px;word-spacing:0px;fill:#000000;fill-opacity:1;stroke:none;font-family:Ubuntu Mono;-inkscape-font-specification:Ubuntu Mono"
             xml:space="preserve"><tspan
               style="font-style:normal;font-variant:normal;font-weight:normal;font-stretch:normal;text-align:center;text-anchor:middle;fill:#ffffff;font-family:Ubuntu;-inkscape-font-specification:Ubuntu"
               y="248.69206"
               x="557.92072"
               sodipodi:role="line"
               id="tspan3164-3-2">ZuriHac</tspan><tspan
               style="font-style:normal;font-variant:normal;font-weight:normal;font-stretch:normal;text-align:center;text-anchor:middle;fill:#ffffff;font-family:Ubuntu;-inkscape-font-specification:Ubuntu"
               y="440.26663"
               x="557.92072"
               sodipodi:role="line"
               id="tspan3166-6-9" /><tspan
               style="font-style:normal;font-variant:normal;font-weight:normal;font-stretch:normal;text-align:center;text-anchor:middle;fill:#ffffff;font-family:Ubuntu;-inkscape-font-specification:Ubuntu"
               id="tspan3168-6-7"
               y="631.84119"
               x="557.92072"
               sodipodi:role="line" /></text>
          <text
             xml:space="preserve"
             style="font-size:122.63925171px;font-style:normal;font-variant:normal;font-weight:normal;font-stretch:normal;line-height:125%;letter-spacing:0px;word-spacing:0px;fill:#000000;fill-opacity:1;stroke:none;font-family:Ubuntu Mono;-inkscape-font-specification:Ubuntu Mono"
             x="559.99908"
             y="395.13953"
             id="text3170-2-5"
             sodipodi:linespacing="125%"><tspan
               id="tspan3174-9-0"
               sodipodi:role="line"
               x="559.99908"
               y="395.13953"
               style="font-style:normal;font-variant:normal;font-weight:normal;font-stretch:normal;text-align:center;text-anchor:middle;fill:#ffffff;font-family:Ubuntu;-inkscape-font-specification:Ubuntu">2015</tspan><tspan
               id="tspan3176-8-7"
               sodipodi:role="line"
               x="559.99908"
               y="548.4386"
               style="font-style:normal;font-variant:normal;font-weight:normal;font-stretch:normal;text-align:center;text-anchor:middle;fill:#ffffff;font-family:Ubuntu;-inkscape-font-specification:Ubuntu" /><tspan
               sodipodi:role="line"
               x="559.99908"
               y="701.73767"
               id="tspan3178-8-0"
               style="font-style:normal;font-variant:normal;font-weight:normal;font-stretch:normal;text-align:center;text-anchor:middle;fill:#ffffff;font-family:Ubuntu;-inkscape-font-specification:Ubuntu" /></text>
        </g>
      </g>
    </g>
  </g>
</svg>
